<?xml version="1.0" encoding="utf-8"?>
<!-- Generator: Adobe Illustrator 22.1.0, SVG Export Plug-In . SVG Version: 6.00 Build 0)  -->
<svg version="1.1" id="Layer_1" xmlns="http://www.w3.org/2000/svg" xmlns:xlink="http://www.w3.org/1999/xlink" x="0px" y="0px"
	 viewBox="0 0 129 130.7" style="enable-background:new 0 0 129 130.7;" xml:space="preserve">
<style type="text/css">
	.st0{fill:#EEC835;}
	.st1{fill:#3A3A3A;}
	.st2{fill:#2E2E2E;}
</style>
<g>
	<polygon class="st0" points="26.2,84.4 110.8,40.9 111.3,41.8 26.6,85.3 	"/>
	<polygon class="st0" points="110.9,41.7 26.8,84.9 26.6,84.5 110.7,41.3 	"/>
	<path class="st1" d="M110.5,41.4l1.2-0.6c0,0,0.8,1.3,0.7,1.3c-0.2,0.1-0.7-0.9-0.7-0.9l-0.8,0.4C110.8,41.7,110.4,41.7,110.5,41.4
		z"/>
	<path class="st2" d="M22.9,77.5c-2.5-5.1-8.7-7.2-13.8-4.6C4,75.4,1.9,81.6,4.5,86.7c1.5,2.9,4.1,4.9,7.1,5.5l0.7,1.4
		c0.2,0.3,0.5,0.5,0.9,0.3L26.9,87c0.3-0.2,0.5-0.5,0.3-0.9L22.9,77.5L22.9,77.5C23,77.6,23,77.5,22.9,77.5z"/>
	<ellipse class="st0" cx="13.8" cy="82.1" rx="7.3" ry="7.3"/>
	<g>
		<path class="st2" d="M6.9,105.7c0,0,0.8,2,1.9-1.1s3.4-13.3,3.4-13.3S5.5,99.3,6.9,105.7z M7.8,106c0,0-1.2-4.6,0.9-8.2
			s2.7-4.4,2.7-4.4S8.6,103.7,7.8,106z"/>
	</g>
	<polygon class="st2" points="22.8,77.9 24.3,77.2 27.6,85.8 26.7,85.7 	"/>
</g>
<g id="Logo">
	<g>
		<g>
			<path class="st2" d="M124.1,74.2l-0.7-2c-2-5.8-4.8-7.6-9.8-9.1c-0.1,0-0.3-0.1-0.4-0.1l6.2-3l-2.1-6.2c-1.2-3.5-2.8-7.3-6.9-7.3
				c-1.4,0-3,0.5-5.1,1.5l-2.6,1.3c-2.8,1.4-4.6,2.9-5.5,4.8l-0.5-1.5l-5.9,2.9l-7.9,3.9l0,0L65.5,68l0,0l-11.9,5.9l0,0L48,76.7
				l-9.6,4.8l0.9,4.7l-2-4.2l-12.6,6.2l13.2,39.7l24.3-12l0,0l4.6-2.3l0,0l0.2-0.1l5.1-2.5l0,0l14.7-7.3c1.1-0.2,2.2-0.7,3.1-1.5
				l17.4-8.6l0,0l2.7-1.3l-0.6-1.9c0.6,0.3,1.3,0.4,2.1,0.4l0,0c1.4,0,3-0.5,5.1-1.5l2.7-1.3C125.2,84.8,126.5,81.2,124.1,74.2z"/>
			<path class="st2" d="M28.7,82.1L13.1,38.8l21.6-11.3L46.9,21c-0.1-0.4-0.2-0.9-0.3-1.3c-0.3-1.1-0.6-2.3-0.8-3.5
				c-0.2-1,0.1-1.8,0.3-2.5c0-0.1,0.1-0.2,0.1-0.3v-1.7h2c0.4,0,1.1,0.1,1.6,0.6l0.5,0.5c0.6,0.6,1.3,1.3,1.9,1.9l1.2-1.2
				c-0.3-0.3-1.9-1.9-2.4-2.4c-0.1-0.1-0.2-0.3-0.3-0.4l-1.9-2.3l2.9-0.7c0.1,0,0.3-0.1,0.5-0.1c0.4,0,1-0.1,1.5-0.1
				c3.5,0,7,2.1,8,5c0.1,0.2,0.2,0.5,0.2,0.7L75.7,6c2.4-1.2,4.2-1.8,5.8-1.8c4.1,0,6,3.7,7.4,7.8l3,8.4c2.7,7.8,1.4,11.6-5.1,15.1
				L85,36.4l4.9,13.8"/>
		</g>
		<path class="st0" d="M90.1,95.5c-1.2-3.6-2.5-7.3-3.7-10.9c-0.1-0.4-0.3-0.5-0.8-0.4c-0.1,0-0.2,0-0.2,0c-0.5,0-0.8-0.2-1-0.6
			c-0.2-0.4,0-0.9,0.4-1.1c0.1,0,0.1-0.1,0.2-0.1c0.4-0.2,0.5-0.4,0.3-0.8c-0.2-0.6-0.4-1.2-0.6-1.8c-0.2-0.5-0.4-0.6-0.9-0.5
			l-3-9.1l3.5-1.8l-2.2-6.7l-13.8,6.8l2.2,6.7l3.5-1.8l2.7,8.2c-0.4,0.2-0.5,0.4-0.3,0.8c0.2,0.6,0.4,1.1,0.6,1.7
			c0.2,0.5,0.3,0.6,0.8,0.5h0.1c0.5-0.1,1,0.2,1.1,0.7c0.2,0.4,0,1-0.5,1.2c-0.1,0-0.1,0.1-0.1,0.1C78,86.9,78,87,78.2,87.5L81.8,98
			c0.1,0.2,0.1,0.3,0.2,0.5c0.2,0.5,0.5,1,0.9,1.4c0.5,0.5,1.2,0.9,2,1.1c0.5,0.1,1,0.2,1.5,0.1c1-0.1,1.9-0.5,2.7-1.3
			c0,0,0-0.1,0.1-0.1c0.4-0.5,0.8-1,1-1.6C90.4,97.4,90.4,96.5,90.1,95.5z M84.3,97.9c-0.2,0.1-0.5,0-0.6-0.3c0-0.1-0.1-0.2-0.1-0.3
			c-1-3-2.1-6.1-3.1-9.1c-0.1-0.2-0.1-0.4,0-0.6c0.1-0.3,0.4-0.3,0.7-0.2c0,0.1,0.2,0.2,0.2,0.4c0.6,1.7,1.1,3.3,1.7,5
			c0.5,1.4,0.9,2.8,1.4,4.1c0,0.1,0.1,0.2,0.1,0.3C84.6,97.6,84.5,97.8,84.3,97.9z M85.7,97.1c-0.1-0.1-0.1-0.2-0.2-0.3
			c-1-3.1-2.1-6.1-3.1-9.2c-0.1-0.2-0.2-0.5,0-0.7s0.6-0.2,0.8,0.1c0.1,0.1,0.1,0.2,0.1,0.3c1,3,2.1,6.1,3.1,9.1
			c0.1,0.2,0.1,0.4,0.1,0.5C86.3,97.3,85.9,97.4,85.7,97.1z M88.2,96.5c-0.1,0.3-0.6,0.4-0.8,0.1c-0.1-0.1-0.1-0.2-0.2-0.3
			c-1-3-2.1-6.1-3.1-9.1C84,86.8,84,86.6,84,86.5c0.1-0.3,0.4-0.4,0.8-0.2c0.1,0.1,0.2,0.2,0.2,0.4c0.9,2.5,1.7,5,2.6,7.6
			c0.2,0.6,0.4,1.1,0.6,1.7V96.5z"/>
		<g>
			<path class="st0" d="M29.2,78.7L15.1,39.4l7.4-3.9l5.4,15.2l3.3-1.7l-5.4-15.2l7.4-3.9l14.1,39.4l-7.4,3.9l-6-16.8l-3.4,1.7
				l6,16.7L29.2,78.7z"/>
			<path class="st0" d="M48.8,39.7l5.1-2.7l2.6,7.4l-5.1,2.7l3.3,9.3l6.4-3.4l2.7,7.4L50,67.7L35.9,28.4l13.8-7.3l2.6,7.4l-6.4,3.4
				L48.8,39.7z"/>
			<path class="st0" d="M90.3,20.2l-3-8.4C84.9,5,82.7,3.9,76.9,6.9l-10.7,5.6l14,39.3l7.4-3.9l-4.8-13.4l3.3-1.7
				C91.9,29.8,92.7,27,90.3,20.2z M82,26.2l-1.8,1l-4-11.1l1.8-1c1.2-0.6,1.6-0.2,2.2,1.5l2.4,6.6C83.2,24.9,83.2,25.6,82,26.2z"/>
			<path class="st0" d="M52.9,117.8l-4.7,2.3l-7.4-14.8c-1-2-2.4-5-3.6-7.4c0.9,2.5,1.9,5.4,2.7,7.8l5.3,15.9l-5.8,2.9L27.5,88.7
				l9.2-4.6l6.3,13c0.9,1.8,1.7,3.8,2.5,5.9c-0.5-2.2-1.2-4.3-1.6-6.3l-3-14.7l9.7-4.8L62.5,113l-6.6,3.2l-5.3-15.9
				c-0.8-2.4-1.8-5.5-2.5-8.1c0.5,2.8,1.2,6.4,1.7,8.5L52.9,117.8z"/>
			<path class="st0" d="M65.4,69.9l-9.2,4.6l7.7,37.9l6.1-3l-1.1-4.9l3.8-1.9l2,4.4l6.7-3.3L65.4,69.9z M67.4,97.8
				c-1.9-7.9-3.6-14.3-5.2-20.2c2.2,5.6,4.7,11.6,7.8,18.9L67.4,97.8z"/>
			<path class="st0" d="M94.6,71.5l4.6-2.3l2.2,6.8l-4.6,2.3l2.8,8.5l5.8-2.9l2.3,6.7l-12.5,6.2L83.3,61l12.5-6.2l2.2,6.8l-5.8,2.9
				L94.6,71.5z"/>
			<path class="st0" d="M115.2,75.3c-0.9-2.8-2.3-3.3-6.4-4.5c-4.4-1.4-6.6-2.7-8.4-7.9l-0.4-1.2c-2.1-6.1-1.2-8.6,4-11.2l2.6-1.3
				c5.3-2.6,7.1-1.5,9.2,4.7l1.5,4.5l-6.3,3.1l-1.3-3.6c-0.5-1.5-0.9-2-2-1.4l-0.4,0.2c-1.1,0.6-1.1,1.1-0.7,2.5l0.3,0.8
				c1,2.8,2.4,3.3,6.4,4.5c4.5,1.4,6.7,2.7,8.5,7.8l0.7,2c2.1,6.1,1.2,8.6-4,11.2l-2.7,1.3c-5.2,2.6-7.2,1.5-9.2-4.7l-1.8-5.5
				l6.3-3.1l1.5,4.7c0.5,1.5,0.8,2,2,1.4l0.4-0.2c1.1-0.5,1.2-1.2,0.6-2.7L115.2,75.3z"/>
		</g>
		<path class="st0" d="M76.1,45.3l-5.4,2.8L59.8,17.5c0.1-1,0.3-2,0.4-3c0.1-0.7,0.2-1.5,0-2.2c-0.9-2.4-4.5-4.2-7.2-3.6
			c-0.1,0-0.1,0-0.2,0.1c0,0,0.1,0.1,0.1,0.2c1,1,2,2,3,3c0.4,0.4,0.6,0.9,0.2,1.3c-0.9,0.9-1.8,1.8-2.8,2.8c-0.5,0.5-0.9,0.5-1.4,0
			c-1-1.1-2.1-2.1-3.1-3.1h-0.2c-0.2,0.7-0.6,1.5-0.5,2.2c0.3,1.6,0.8,3.2,1.2,4.8c0,0.1,0,0.1,0.1,0.2c0,0,0.1-0.1,0.2-0.1
			c0.2-0.1,0.5-0.4,0.6-0.4c0.5,0.3,1,0.7,1.5,1.1c0.1,0,0,0.2,0.1,0.3c0,0.1,0,0.2,0,0.2c0.1,0.1,0.4,0.3,0.4,0.2
			c0.1-0.1,0.2-0.2,0.3-0.2l13.6,38.2l12.8-6.7L76.1,45.3z"/>
	</g>
</g>
</svg>
