<svg id="Layer_1" xmlns="http://www.w3.org/2000/svg" viewBox="0 0 144.7 152.6">
  <style>
    .st0{fill:#eec835}.st2{fill:#2e2e2e}
  </style>
  <path class="st0" d="M34.9 97.3l84-44.4.5.9-84.1 44.4z"/>
  <path class="st0" d="M119 53.7L35.5 97.8l-.2-.4 83.5-44.1z"/>
  <path d="M118.6 53.4l1.2-.6s.8 1.3.7 1.3c-.2.1-.7-.9-.7-.9l-.8.4c-.1.1-.5.1-.4-.2z" fill="#3a3a3a"/>
  <path class="st2" d="M31 89.5a10.2 10.2 0 0 0-13.8-4.6 10.2 10.2 0 0 0-4.6 13.8c1.5 2.9 4.1 4.9 7.1 5.5l.7 1.4c.2.3.5.5.9.3L35 99c.3-.2.5-.5.3-.9l-4.2-8.5s0-.1-.1-.1z"/>
  <ellipse transform="rotate(-48.86 21.86 94.08)" class="st0" cx="21.9" cy="94.1" rx="7.3" ry="7.3"/>
  <path class="st2" d="M15 117.7s.8 2 1.9-1.1c1.1-3.1 3.4-13.3 3.4-13.3s-6.7 8-5.3 14.4zm.9.3s-1.2-4.6.9-8.2c2.1-3.6 2.7-4.4 2.7-4.4s-2.8 10.3-3.6 12.6zM30.9 89.9l1.5-.7 3.3 8.6-.9-.1z"/>
  <g id="Logo">
    <path class="st2" d="M132.2 86.2l-.7-2c-2-5.8-4.8-7.6-9.8-9.1-.1 0-.3-.1-.4-.1l6.2-3-2.1-6.2c-1.2-3.5-2.8-7.3-6.9-7.3-1.4 0-3 .5-5.1 1.5l-2.6 1.3c-2.8 1.4-4.6 2.9-5.5 4.8l-.5-1.5-5.9 2.9-7.9 3.9L73.6 80l-11.9 5.9-5.6 2.8-9.6 4.8.9 4.7-2-4.2-12.6 6.2L46 139.9l24.3-12 4.6-2.3.2-.1 5.1-2.5 14.7-7.3c1.1-.2 2.2-.7 3.1-1.5l17.4-8.6 2.7-1.3-.6-1.9c.6.3 1.3.4 2.1.4 1.4 0 3-.5 5.1-1.5l2.7-1.3c5.9-3.2 7.2-6.8 4.8-13.8zM120.3 23.5l-3-8.4c-1.4-4.1-3.3-7.8-7.4-7.8-1.6 0-3.4.6-5.8 1.8l-13.8 7.2c0-.2-.1-.5-.2-.7-1-2.9-4.5-5-8-5-.5 0-1.1.1-1.5.1-.2 0-.4.1-.5.1l-2.9.7 1.9 2.3c.1.1.2.3.3.4l2.4 2.4-1.2 1.2-1.9-1.9-.5-.5c-.5-.5-1.2-.6-1.6-.6h-2v1.7c0 .1-.1.2-.1.3-.2.7-.5 1.5-.3 2.5.2 1.2.5 2.4.8 3.5l.3 1.3-12.2 6.4-43.7 22.9L24.3 66l5.6 14.2 6.2 16.4 7.3-3.9L56.3 86l62-32.7-4.9-13.8 1.8-.9c6.5-3.5 7.8-7.3 5.1-15.1z"/>
    <path class="st0" d="M98.2 107.5c-1.2-3.6-2.5-7.3-3.7-10.9-.1-.4-.3-.5-.8-.4h-.2c-.5 0-.8-.2-1-.6-.2-.4 0-.9.4-1.1.1 0 .1-.1.2-.1.4-.2.5-.4.3-.8l-.6-1.8c-.2-.5-.4-.6-.9-.5l-3-9.1 3.5-1.8-2.2-6.7-13.8 6.8 2.2 6.7 3.5-1.8 2.7 8.2c-.4.2-.5.4-.3.8.2.6.4 1.1.6 1.7.2.5.3.6.8.5h.1c.5-.1 1 .2 1.1.7.2.4 0 1-.5 1.2-.1 0-.1.1-.1.1-.4.3-.4.4-.2.9l3.6 10.5c.1.2.1.3.2.5.2.5.5 1 .9 1.4.5.5 1.2.9 2 1.1.5.1 1 .2 1.5.1 1-.1 1.9-.5 2.7-1.3 0 0 0-.1.1-.1.4-.5.8-1 1-1.6.2-.7.2-1.6-.1-2.6zm-6.1-9c.1-.3.4-.4.8-.2.1.1.2.2.2.4.9 2.5 1.7 5 2.6 7.6.2.6.4 1.1.6 1.7v.5c-.1.3-.6.4-.8.1-.1-.1-.1-.2-.2-.3-1-3-2.1-6.1-3.1-9.1-.1-.4-.1-.6-.1-.7zm.3 11.4c-.2.1-.5 0-.6-.3 0-.1-.1-.2-.1-.3-1-3-2.1-6.1-3.1-9.1-.1-.2-.1-.4 0-.6.1-.3.4-.3.7-.2 0 .1.2.2.2.4.6 1.7 1.1 3.3 1.7 5 .5 1.4.9 2.8 1.4 4.1 0 .1.1.2.1.3 0 .4-.1.6-.3.7zm1.4-.8c-.1-.1-.1-.2-.2-.3-1-3.1-2.1-6.1-3.1-9.2-.1-.2-.2-.5 0-.7.2-.2.6-.2.8.1.1.1.1.2.1.3 1 3 2.1 6.1 3.1 9.1.1.2.1.4.1.5-.2.4-.6.5-.8.2zM57.7 82.1L43.6 42.8l7.4-3.9 5.4 15.2 3.3-1.7-5.4-15.2 7.4-3.9 14.1 39.4-7.4 3.9-6-16.8-3.4 1.7 6 16.7-7.3 3.9zM77.3 43.1l5.1-2.7 2.6 7.4-5.1 2.7 3.3 9.3 6.4-3.4 2.7 7.4-13.8 7.3-14.1-39.3 13.8-7.3 2.6 7.4-6.4 3.4 2.9 7.8zM96.9 50.5c-.8-.8-1.9-.7-2.7.1-.7.7-.7 2 .1 2.7.7.7 2 .6 2.7-.1.8-.8.8-1.9-.1-2.7zM94.7 15.9l10.7-5.6c5.8-3 8-1.9 10.4 4.9l3 8.4c2.4 6.8 1.6 9.6-4.2 12.6l-3.3 1.7 4.8 13.4-7.4 3.9-14-39.3zm15.8 13.7c1.2-.6 1.2-1.3.6-3l-2.4-6.6c-.6-1.7-1-2.1-2.2-1.5l-1.8 1 4 11.1 1.8-1zM61 129.8l-4.7 2.3-7.4-14.8c-1-2-2.4-5-3.6-7.4.9 2.5 1.9 5.4 2.7 7.8l5.3 15.9-5.8 2.9-11.9-35.8 9.2-4.6 6.3 13c.9 1.8 1.7 3.8 2.5 5.9-.5-2.2-1.2-4.3-1.6-6.3L49 94l9.7-4.8L70.6 125l-6.6 3.2-5.3-15.9a155 155 0 0 1-2.5-8.1c.5 2.8 1.2 6.4 1.7 8.5l3.1 17.1zM80.8 114.6l-3.8 1.9 1.1 4.9-6.1 3-7.7-37.9 9.2-4.6 16 33.8-6.7 3.3-2-4.4zm-5.3-4.8l2.6-1.3c-3.1-7.3-5.6-13.3-7.8-18.9 1.6 5.9 3.3 12.3 5.2 20.2zM102.7 83.5l4.6-2.3 2.2 6.8-4.6 2.3 2.8 8.5 5.8-2.9 2.3 6.7-12.5 6.2L91.4 73l12.5-6.2 2.2 6.8-5.8 2.9 2.4 7zM123.3 87.3c-.9-2.8-2.3-3.3-6.4-4.5-4.4-1.4-6.6-2.7-8.4-7.9l-.4-1.2c-2.1-6.1-1.2-8.6 4-11.2l2.6-1.3c5.3-2.6 7.1-1.5 9.2 4.7l1.5 4.5-6.3 3.1-1.3-3.6c-.5-1.5-.9-2-2-1.4l-.4.2c-1.1.6-1.1 1.1-.7 2.5l.3.8c1 2.8 2.4 3.3 6.4 4.5 4.5 1.4 6.7 2.7 8.5 7.8l.7 2c2.1 6.1 1.2 8.6-4 11.2l-2.7 1.3c-5.2 2.6-7.2 1.5-9.2-4.7l-1.8-5.5 6.3-3.1 1.5 4.7c.5 1.5.8 2 2 1.4l.4-.2c1.1-.5 1.2-1.2.6-2.7l-.4-1.4z"/>
    <g>
      <path class="st0" d="M37.1 91.7l-5-12.9 3.8-1.5 1.4 3.6 15.3-6 1.7 4.5-15.3 6 1.8 4.6-3.7 1.7zM50.5 69.8l-19.1 7.4-1.7-4.5 7.3-2.9-1.2-3.1-7.3 2.9-1.7-4.5 19.1-7.4 1.7 4.5-7.9 3.1 1.2 3.1 7.9-3.1 1.7 4.5zM44.9 55.5L25.8 63l-3.6-9.1 3.7-1.9 2 5 3.5-1.4-2.1-5.4 3.7-1.9 2.3 5.9 4.1-1.6-2.5-6.3 3.7-1.9 4.3 11.1z"/>
    </g>
    <path class="st0" d="M104.6 48.7l-5.4 2.8-10.9-30.6c.1-1 .3-2 .4-3 .1-.7.2-1.5 0-2.2-.9-2.4-4.5-4.2-7.2-3.6-.1 0-.1 0-.2.1 0 0 .1.1.1.2l3 3c.4.4.6.9.2 1.3l-2.8 2.8c-.5.5-.9.5-1.4 0-1-1.1-2.1-2.1-3.1-3.1h-.2c-.2.7-.6 1.5-.5 2.2.3 1.6.8 3.2 1.2 4.8 0 .1 0 .1.1.2 0 0 .1-.1.2-.1.2-.1.5-.4.6-.4.5.3 1 .7 1.5 1.1.1 0 0 .2.1.3v.2c.1.1.4.3.4.2.1-.1.2-.2.3-.2l13.6 38.2 12.8-6.7-2.8-7.5z"/>
  </g>
</svg>
