<svg xmlns="http://www.w3.org/2000/svg" viewBox="0 0 194 194">
  <path fill="#e5aa41" d="M149.7 153.4V194h17.8zM61.8 44.1V0L0 27.1v17z"/>
  <path fill="#ffcc3e" d="M166.9 194L0 27.1 61.8 0 194 132.2z"/>
  <path fill="#fff" d="M2.4 27.1L62.5.8l-.7-.8L0 27.1 166.9 194l.7-1.7z" opacity=".3"/>
  <g fill="#111">
    <path d="M83.4 44.1c.3.2.6.4.9.7.3.3.6.5.8.8l.8.8c.3.3.5.6.7.9L79 75.7l18-18c.3.2.6.5.9.7.3.3.6.5.9.8.2.2.5.5.7.8.2.3.5.6.7.9l-24 24c-.3-.2-.6-.4-.9-.7-.3-.3-.6-.5-.8-.8l-.8-.8c-.3-.3-.5-.6-.7-.9l7.5-28.4-17.9 18c-.3-.2-.6-.4-.9-.7-.3-.3-.6-.5-.9-.8-.3-.3-.6-.6-.8-.9-.3-.3-.5-.6-.7-.9l24.1-23.9zM106.2 66.8L119.4 80c-.4.5-.8 1-1.4 1.6l-.8.8c-.3.3-.6.5-.8.7l-9.8-9.8-6.9 6.7 7.8 7.8c-.2.3-.4.5-.6.8-.2.3-.5.5-.7.8-.2.2-.5.5-.8.7-.3.2-.6.5-.8.6L96.7 83l-8.2 8.2 10.1 10.1c-.4.5-.8 1-1.4 1.6l-.8.8c-.3.3-.6.5-.8.7L82.1 90.8l24.1-24zM122 82.7c.3.2.6.5 1 .8.4.3.7.7 1.1 1 .3.3.6.6.9 1 .3.3.6.7.8 1l-15.9 24.1 25-15.1c.3.2.6.5 1 .8.3.3.7.6 1 .9l.9.9c.3.4.6.7.8 1l-15.2 25.2 24.4-16c.3.2.6.4.9.7s.6.5.9.8c.3.3.6.6.9 1 .3.3.6.7.8 1L121.5 130c-.3-.2-.7-.5-1-.8-.4-.3-.7-.6-1-.9-.3-.3-.6-.7-1-1.1-.4-.4-.7-.8-.9-1.1l14.1-23.6-23.6 14c-.4-.3-.7-.6-1.1-.9-.4-.3-.7-.7-1.1-1-.3-.3-.6-.6-.9-1-.3-.4-.6-.7-.8-1L122 82.7z"/>
  </g>
</svg>
